<?xml version="1.0" encoding="UTF-8" standalone="yes"?>
<!DOCTYPE svg PUBLIC "-//W3C//DTD SVG 1.1//EN" "http://www.w3.org/Graphics/SVG/1.1/DTD/svg11.dtd">

<svg width="342" height="324" viewBox="0 0 342 324" xmlns="http://www.w3.org/2000/svg" xmlns:xlink="http://www.w3.org/1999/xlink" version="1.1" baseProfile="full">
    <g transform="scale(1,-1) translate(0,-324)">
        <path d="M 342.336340 162.657429 L 341.830468 160.735101 L 340.312849 158.853251 L 337.783478 157.011872 L 334.242351 155.210955 L 325.581783 151.730539 L 318.378128 149.707046 L 309.596131 148.007301 L 301.056988 146.793203 L 292.760666 146.064747 L 284.707130 145.821929 L 225.782902 145.821929 L 209.271169 120.892446 L 230.639295 120.892446 L 230.639295 114.741012 L 230.882111 111.422472 L 230.942815 110.430962 L 230.963050 109.884619 L 230.760702 106.606544 L 230.153657 103.895061 L 229.141909 101.750160 L 227.725454 100.171832 L 208.623636 100.171832 L 205.466986 104.299773 L 204.192187 105.331752 L 203.119733 105.675744 L 203.109616 105.675744 L 203.079264 105.675744 L 202.957854 105.675744 L 202.472211 105.675744 L 201.500935 105.675744 L 200.646006 105.200226 L 199.214387 103.773671 L 194.621063 98.067432 L 187.720942 88.557000 L 178.514000 75.242344 L 147.675870 29.915954 L 130.273834 4.662756 L 128.897853 3.104661 L 127.359998 1.991740 L 125.660263 1.323989 L 123.798643 1.101406 L 114.085856 1.101406 L 130.921343 36.391198 L 137.720293 54.602659 L 145.814290 78.156181 L 152.127608 97.258024 L 153.705928 102.438157 L 154.100507 103.935537 L 154.232033 104.704464 L 154.232033 145.821929 L 83.004932 145.821929 L 82.870876 145.830149 L 82.630587 145.854811 L 81.831311 145.953456 L 78.957958 146.348036 L 68.111998 147.926365 L 57.185093 149.504699 L 54.210563 149.899280 L 53.345523 149.997925 L 52.895296 150.030807 L 52.030251 149.707050 L 50.730159 148.735778 L 46.824823 144.850679 L 41.179270 138.375489 L 33.793484 129.310190 L 12.101593 102.114387 L 1.093768 102.114387 L 19.224303 158.124796 L 17.140100 159.763831 L 14.448856 161.119573 L 11.150559 162.192024 L 7.245199 162.981190 L 19.224303 166.866301 L 1.093768 223.847986 L 4.007604 223.524231 L 8.216478 223.847986 L 10.239978 223.847986 L 10.826790 223.847986 L 11.130314 223.847986 L 11.184063 223.830596 L 11.264370 223.778429 L 11.504660 223.569757 L 12.303937 222.735070 L 15.177292 219.396312 L 26.023253 206.041210 L 40.349626 187.829715 L 49.657701 176.579094 L 50.709917 176.093451 L 52.571535 175.931572 L 53.542818 175.931572 L 54.514094 175.931572 L 54.655738 175.939793 L 54.918791 175.964454 L 55.809124 176.063098 L 59.046707 176.457677 L 71.349593 178.036002 L 83.733413 179.614338 L 87.072170 180.008918 L 88.028268 180.107563 L 88.508847 180.140444 L 154.232033 180.140444 L 154.232033 220.610390 L 154.200417 220.825386 L 154.105566 221.227554 L 153.726163 222.593407 L 152.208547 227.571192 L 146.138045 246.511155 L 137.639355 271.035954 L 130.921343 288.923654 L 114.085856 324.860961 L 122.503600 324.860961 L 124.688982 324.597909 L 126.712476 323.808752 L 128.574091 322.493484 L 130.273834 320.652101 L 198.263340 220.934145 L 198.748973 220.448513 L 199.558371 220.286635 L 200.529647 220.286635 L 201.500935 220.610390 L 203.119733 220.610390 L 204.374299 220.954382 L 205.871683 221.986363 L 209.594924 226.114305 L 227.725454 226.114305 L 229.141909 225.021615 L 230.153657 223.038595 L 230.760702 220.165232 L 230.963050 216.401518 L 230.963050 215.430242 L 230.639295 205.393688 L 208.623636 205.393688 L 225.135368 180.140444 L 282.764578 180.140444 L 290.312233 179.897626 L 298.385969 179.169168 L 306.985820 177.955069 L 316.111821 176.255327 L 322.425126 174.555592 L 330.357222 171.398933 L 335.598104 169.031438 L 339.341576 166.785361 L 341.587651 164.660693 L 342.149168 163.643886 L 342.336340 162.657429 Z" transform="scale(1.000000,1.000000) translate(-1.000000,-1.000000)" opacity="1.000000"></path>
    </g>
</svg>